<svg xmlns="http://www.w3.org/2000/svg" viewBox="0 0 1200 720" role="img" aria-label="Marrakech medina at night">
  <defs>
    <linearGradient id="night-sky" x1="0" y1="0" x2="0" y2="1">
      <stop offset="0%" stop-color="#18263f" />
      <stop offset="55%" stop-color="#3f2f4f" />
      <stop offset="100%" stop-color="#7f4f45" />
    </linearGradient>
    <linearGradient id="ground" x1="0" y1="0" x2="0" y2="1">
      <stop offset="0%" stop-color="#c87752" />
      <stop offset="100%" stop-color="#8c402e" />
    </linearGradient>
    <filter id="lantern-glow" x="-60%" y="-60%" width="220%" height="220%">
      <feGaussianBlur stdDeviation="10" />
    </filter>
  </defs>

  <rect width="1200" height="720" fill="url(#night-sky)" />
  <circle cx="980" cy="126" r="60" fill="#ffd8a0" opacity="0.85" />
  <circle cx="980" cy="126" r="95" fill="#ffd8a0" opacity="0.18" />

  <path d="M0 420 C230 380 420 455 600 430 C825 394 980 460 1200 434 L1200 720 L0 720 Z" fill="url(#ground)" />

  <g opacity="0.95">
    <rect x="80" y="255" width="140" height="190" rx="8" fill="#8a3f31" />
    <rect x="220" y="225" width="120" height="220" rx="8" fill="#7a352a" />
    <rect x="340" y="265" width="155" height="180" rx="8" fill="#8f4735" />
    <rect x="495" y="235" width="118" height="210" rx="8" fill="#763126" />
    <rect x="612" y="278" width="148" height="167" rx="8" fill="#8f4735" />
    <rect x="760" y="248" width="138" height="197" rx="8" fill="#7a352a" />
    <rect x="898" y="272" width="152" height="173" rx="8" fill="#8f4735" />
  </g>

  <g>
    <circle cx="162" cy="326" r="14" fill="#ffc56f" />
    <circle cx="280" cy="300" r="14" fill="#ffc56f" />
    <circle cx="426" cy="334" r="14" fill="#ffc56f" />
    <circle cx="550" cy="304" r="14" fill="#ffc56f" />
    <circle cx="680" cy="338" r="14" fill="#ffc56f" />
    <circle cx="818" cy="312" r="14" fill="#ffc56f" />
    <circle cx="975" cy="336" r="14" fill="#ffc56f" />

    <circle cx="162" cy="326" r="36" fill="#ffc56f" opacity="0.35" filter="url(#lantern-glow)" />
    <circle cx="280" cy="300" r="36" fill="#ffc56f" opacity="0.35" filter="url(#lantern-glow)" />
    <circle cx="426" cy="334" r="36" fill="#ffc56f" opacity="0.35" filter="url(#lantern-glow)" />
    <circle cx="550" cy="304" r="36" fill="#ffc56f" opacity="0.35" filter="url(#lantern-glow)" />
    <circle cx="680" cy="338" r="36" fill="#ffc56f" opacity="0.35" filter="url(#lantern-glow)" />
    <circle cx="818" cy="312" r="36" fill="#ffc56f" opacity="0.35" filter="url(#lantern-glow)" />
    <circle cx="975" cy="336" r="36" fill="#ffc56f" opacity="0.35" filter="url(#lantern-glow)" />
  </g>

  <g transform="translate(410 455)">
    <rect x="0" y="0" width="380" height="75" rx="10" fill="#632a22" opacity="0.75" />
    <rect x="16" y="16" width="110" height="42" rx="8" fill="#8f4735" />
    <rect x="138" y="16" width="110" height="42" rx="8" fill="#8f4735" />
    <rect x="260" y="16" width="104" height="42" rx="8" fill="#8f4735" />
  </g>
</svg>
