<svg xmlns="http://www.w3.org/2000/svg" viewBox="0 0 1200 720" role="img" aria-label="Mykonos coast at sunset">
  <defs>
    <linearGradient id="sky" x1="0" y1="0" x2="0" y2="1">
      <stop offset="0%" stop-color="#57c0ef" />
      <stop offset="72%" stop-color="#b9e8fb" />
      <stop offset="100%" stop-color="#f7f2df" />
    </linearGradient>
    <linearGradient id="sea" x1="0" y1="0" x2="0" y2="1">
      <stop offset="0%" stop-color="#4bb3e4" />
      <stop offset="100%" stop-color="#1775ac" />
    </linearGradient>
    <filter id="soft-shadow" x="-40%" y="-40%" width="180%" height="180%">
      <feDropShadow dx="0" dy="6" stdDeviation="7" flood-opacity="0.24" flood-color="#0f4f7d" />
    </filter>
  </defs>

  <rect width="1200" height="720" fill="url(#sky)" />
  <circle cx="975" cy="145" r="72" fill="#ffd591" opacity="0.95" />
  <ellipse cx="965" cy="390" rx="168" ry="21" fill="#f8b46e" opacity="0.46" />

  <path d="M0 430 C220 360 440 460 650 425 C845 392 1030 457 1200 430 L1200 720 L0 720 Z" fill="url(#sea)" />
  <path d="M0 478 C260 430 450 510 650 485 C855 462 1040 530 1200 500 L1200 720 L0 720 Z" fill="#0f6698" opacity="0.62" />

  <g filter="url(#soft-shadow)">
    <rect x="120" y="250" width="150" height="160" rx="6" fill="#ffffff" />
    <rect x="270" y="220" width="110" height="190" rx="6" fill="#ffffff" />
    <rect x="380" y="260" width="125" height="150" rx="6" fill="#ffffff" />
    <rect x="505" y="245" width="95" height="165" rx="6" fill="#ffffff" />

    <rect x="150" y="285" width="26" height="26" fill="#4bb3e4" />
    <rect x="190" y="285" width="26" height="26" fill="#4bb3e4" />
    <rect x="150" y="324" width="26" height="26" fill="#4bb3e4" />
    <rect x="190" y="324" width="26" height="26" fill="#4bb3e4" />

    <rect x="300" y="262" width="22" height="22" fill="#4bb3e4" />
    <rect x="333" y="262" width="22" height="22" fill="#4bb3e4" />
    <rect x="300" y="295" width="22" height="22" fill="#4bb3e4" />
    <rect x="333" y="295" width="22" height="22" fill="#4bb3e4" />

    <rect x="410" y="295" width="22" height="22" fill="#4bb3e4" />
    <rect x="442" y="295" width="22" height="22" fill="#4bb3e4" />
    <rect x="410" y="330" width="22" height="22" fill="#4bb3e4" />
    <rect x="442" y="330" width="22" height="22" fill="#4bb3e4" />

    <rect x="525" y="278" width="20" height="20" fill="#4bb3e4" />
    <rect x="553" y="278" width="20" height="20" fill="#4bb3e4" />
    <rect x="525" y="310" width="20" height="20" fill="#4bb3e4" />
    <rect x="553" y="310" width="20" height="20" fill="#4bb3e4" />
  </g>

  <g transform="translate(760 265)">
    <path d="M0 105 L110 72 L223 105 L223 165 L0 165 Z" fill="#ffffff" filter="url(#soft-shadow)" />
    <rect x="47" y="95" width="14" height="70" fill="#0f4f7d" />
    <path d="M54 95 L54 28 L83 95 Z" fill="#ffffff" filter="url(#soft-shadow)" />
    <path d="M54 95 L54 44 L32 95 Z" fill="#f0f9ff" filter="url(#soft-shadow)" />
  </g>
</svg>
